<svg width="14" height="12" viewBox="0 0 14 12" fill="none" xmlns="http://www.w3.org/2000/svg">
<path fill-rule="evenodd" clip-rule="evenodd" d="M6.9 12C10.4346 12 13.3 9.31371 13.3 6C13.3 4.44768 12.6712 3.03305 11.6394 1.96776L11.6535 1.95358C11.8488 1.75832 11.8488 1.44174 11.6535 1.24647C11.4583 1.05121 11.1417 1.05121 10.9464 1.24647L10.8868 1.30609C9.79317 0.488599 8.40745 0 6.9 0C3.36538 0 0.5 2.68629 0.5 6C0.5 7.55232 1.12881 8.96696 2.16065 10.0322L2.14643 10.0465C1.95116 10.2417 1.95116 10.5583 2.14643 10.7536C2.34169 10.9488 2.65827 10.9488 2.85353 10.7536L2.9132 10.6939C4.00683 11.5114 5.39255 12 6.9 12ZM2.9132 10.6939L11.6394 1.96776C11.4079 1.72883 11.1562 1.50748 10.8868 1.30609L2.16065 10.0322C2.39207 10.2712 2.64377 10.4925 2.9132 10.6939Z" fill="#3D7A15"/>
</svg>
