<svg width="76" height="85" viewBox="0 0 76 85" fill="none" xmlns="http://www.w3.org/2000/svg">
<g opacity="0.3">
<path d="M1 13.718L10.5385 1" stroke="#8AC341" stroke-width="2"/>
<path d="M1 59.0256L10.5385 46.3076" stroke="#8AC341" stroke-width="2"/>
<path d="M1 38.3591L10.5385 25.6411" stroke="#8AC341" stroke-width="2"/>
<path d="M1 83.6667L10.5385 70.9487" stroke="#8AC341" stroke-width="2"/>
<path d="M43.9231 13.718L53.4616 1" stroke="#8AC341" stroke-width="2"/>
<path d="M43.9231 59.0256L53.4616 46.3076" stroke="#8AC341" stroke-width="2"/>
<path d="M43.9231 38.3591L53.4616 25.6411" stroke="#8AC341" stroke-width="2"/>
<path d="M43.9231 83.6667L53.4616 70.9487" stroke="#8AC341" stroke-width="2"/>
<path d="M22.4614 13.718L31.9999 1" stroke="#8AC341" stroke-width="2"/>
<path d="M22.4614 59.0256L31.9999 46.3076" stroke="#8AC341" stroke-width="2"/>
<path d="M22.4614 38.3591L31.9999 25.6411" stroke="#8AC341" stroke-width="2"/>
<path d="M22.4614 83.6667L31.9999 70.9487" stroke="#8AC341" stroke-width="2"/>
<path d="M65.3848 13.718L74.9232 1" stroke="#8AC341" stroke-width="2"/>
<path d="M65.3848 59.0256L74.9232 46.3076" stroke="#8AC341" stroke-width="2"/>
<path d="M65.3848 38.3591L74.9232 25.6411" stroke="#8AC341" stroke-width="2"/>
<path d="M65.3848 83.6667L74.9232 70.9487" stroke="#8AC341" stroke-width="2"/>
</g>
</svg>
